<svg xmlns="http://www.w3.org/2000/svg" viewBox="64 4 268 702" width="268" height="702">
  <g fill="#c8643c">

    <polygon points="330,26 313,58 337,54"></polygon>
    <polygon points="321,50 333,54 98,708 87,704"></polygon>

    <path d="M194 82 C 196 40, 222 14, 250 16 C 278 18, 300 44, 302 80 C 286 62, 250 50, 214 62 C 206 66, 199 73, 194 82 Z"></path>
    <path d="M238 92 L242 54 L254 56 L250 92 Z"></path>

    <path d="M198 206 C 182 198, 176 176, 178 152 C 180 118, 204 92, 240 92 C 270 92, 294 110, 298 138 C 300 152, 296 162, 288 166 L 302 178 L 298 190 L 280 186 C 278 196, 271 203, 261 205 L 259 203 C 238 209, 214 208, 198 206 Z"></path>

    <path d="M200 204 C 180 230, 170 282, 180 334 C 186 372, 200 404, 224 410 C 246 406, 256 380, 256 346 C 258 294, 252 242, 242 212 C 228 202, 214 200, 200 204 Z"></path>

    <path d="M200 218 C 218 212, 238 204, 258 194 C 270 188, 282 184, 287 192 C 290 200, 281 207, 270 212 C 252 221, 234 232, 222 244 C 213 236, 204 226, 200 218 Z"></path>

    <path d="M200 404 C 178 430, 152 490, 134 568 C 126 600, 122 632, 124 664 L 146 666 C 152 620, 166 566, 188 514 C 204 474, 222 444, 228 420 Z"></path>
    <polygon points="110,658 146,658 166,674 163,687 108,687"></polygon>

    <path d="M210 400 C 238 412, 266 446, 280 494 C 290 528, 290 568, 280 610 L 260 652 C 254 610, 254 568, 242 530 C 232 494, 214 462, 204 436 C 198 420, 200 408, 210 400 Z"></path>
    <polygon points="250,646 288,646 310,662 307,676 248,676"></polygon>

    <circle cx="244" cy="352" r="96"></circle>

    <ellipse cx="266" cy="142" rx="11" ry="5" transform="rotate(-8 266 142)" fill="#0b0805"></ellipse>
    <g fill="none" stroke="#0b0805" stroke-width="3" stroke-linecap="round">
      <circle cx="244" cy="352" r="90"></circle>
      <circle cx="244" cy="352" r="56"></circle>
      <circle cx="244" cy="352" r="11" fill="#0b0805" stroke="none"></circle>
      <path d="M244 267 L244 437 M159 352 L329 352 M184 292 L304 412 M304 292 L184 412"></path>
    </g>
  </g>
</svg>
